<svg xmlns="http://www.w3.org/2000/svg" xmlns:xlink="http://www.w3.org/1999/xlink" width="1080" zoomAndPan="magnify" viewBox="0 0 810 809.999993" height="1080" preserveAspectRatio="xMidYMid meet" version="1.0"><defs><clipPath id="370b93b14f"><path d="M 171.105469 111 L 634 111 L 634 697 L 171.105469 697 Z M 171.105469 111 " clip-rule="nonzero"/></clipPath><clipPath id="87cc46b4a5"><path d="M 171.105469 206 L 519 206 L 519 697 L 171.105469 697 Z M 171.105469 206 " clip-rule="nonzero"/></clipPath></defs><rect x="-81" width="972" fill="#ffffff" y="-80.999999" height="971.999992" fill-opacity="1"/><rect x="-81" width="972" fill="#ffffff" y="-80.999999" height="971.999992" fill-opacity="1"/><g clip-path="url(#370b93b14f)"><path fill="#d1904a" d="M 288.253906 160.804688 C 288.253906 160.804688 290.207031 143.792969 322.277344 134 C 354.34375 124.203125 370.710938 118.976562 383.132812 113.082031 C 395.554688 107.191406 405.398438 120.261719 407.351562 132.046875 C 409.304688 143.832031 407.351562 163.421875 407.351562 163.421875 C 407.351562 163.421875 426.335938 164.082031 432.234375 171.261719 C 432.234375 171.261719 446.648438 147.070312 483.953125 143.167969 C 521.257812 139.226562 523.210938 128.769531 542.859375 129.433594 C 562.507812 130.097656 572.308594 139.890625 572.976562 179.769531 C 573.640625 219.648438 565.789062 249.734375 549.421875 264.09375 C 533.054688 278.492188 527.15625 282.394531 523.914062 290.898438 C 520.632812 299.40625 509.5 307.25 509.5 307.25 C 509.5 307.25 514.734375 338.621094 503.601562 359.535156 C 503.601562 359.535156 516.6875 376.546875 510.164062 396.800781 C 510.164062 396.800781 531.101562 447.136719 557.9375 480.5 C 584.769531 513.859375 611.605469 558.304688 622.074219 592.292969 C 632.542969 626.277344 639.105469 655.699219 626.644531 675.328125 C 614.183594 694.953125 590.003906 695.578125 557.9375 695.578125 C 525.867188 695.578125 291.574219 697.527344 279.152344 695.578125 C 266.730469 693.625 239.230469 662.253906 233.996094 643.289062 C 228.761719 624.328125 229.425781 588.390625 262.785156 598.183594 C 262.785156 598.183594 245.128906 449.125 256.886719 420.367188 C 256.886719 420.367188 243.136719 405.96875 238.566406 398.789062 C 238.566406 398.789062 208.449219 385.054688 205.207031 365.46875 C 205.207031 365.46875 172.472656 349.117188 171.847656 319.03125 C 171.222656 288.949219 175.128906 263.46875 198.683594 250.394531 C 198.605469 250.394531 211.691406 182.382812 288.253906 160.804688 Z M 288.253906 160.804688 " fill-opacity="1" fill-rule="nonzero"/></g><g clip-path="url(#87cc46b4a5)"><path fill="#825e42" d="M 460.710938 649.496094 C 460.710938 649.496094 446.296875 645.90625 445.320312 632.832031 C 444.34375 619.761719 452.507812 617.148438 452.507812 617.148438 C 452.507812 617.148438 459.382812 599.511719 474.109375 606.027344 C 474.109375 606.027344 488.835938 596.234375 501.257812 610.941406 C 501.257812 610.941406 515.320312 608.640625 518.289062 621.710938 C 521.21875 634.785156 505.867188 645.242188 505.867188 645.242188 C 505.867188 645.242188 518.953125 682.816406 503.25 692.652344 C 487.546875 702.445312 459.382812 692.964844 460.710938 649.496094 Z M 236.222656 648.207031 C 242.785156 667.484375 267.316406 688.75 267.316406 688.75 C 283.019531 670.449219 262.394531 645.28125 262.394531 645.28125 C 268.957031 637.125 269.582031 617.5 261.066406 612.582031 C 252.550781 607.664062 249.621094 612.894531 249.621094 612.894531 C 244.386719 600.796875 235.558594 606.339844 235.558594 606.339844 C 225.753906 627.605469 236.222656 648.207031 236.222656 648.207031 Z M 230.011719 356.296875 C 240.480469 338.660156 246.378906 302.683594 271.261719 309.238281 C 296.144531 315.792969 303.996094 376.585938 364.1875 390.324219 C 424.382812 404.058594 446.648438 369.40625 449.265625 348.492188 C 451.882812 327.578125 457.117188 294.214844 416.53125 276.578125 C 375.945312 258.941406 375.28125 211.140625 315.089844 206.578125 C 254.894531 202.011719 241.144531 228.816406 226.730469 241.226562 C 212.316406 253.636719 198.605469 250.394531 198.605469 250.394531 C 175.011719 263.46875 171.105469 288.949219 171.769531 319.03125 C 172.433594 349.117188 205.128906 365.464844 205.128906 365.464844 C 205.128906 365.464844 219.542969 373.933594 230.011719 356.296875 Z M 230.011719 356.296875 " fill-opacity="1" fill-rule="nonzero"/></g><path fill="#ffffff" d="M 428.328125 227.179688 C 429.460938 241.539062 423.289062 256.367188 414.148438 267.566406 C 411.257812 271.117188 408.054688 274.394531 404.421875 276.890625 C 389.890625 286.996094 370.125 282.585938 359.617188 269.28125 C 357.625 266.746094 355.90625 263.9375 354.8125 260.777344 C 353.40625 256.71875 353.09375 252.269531 353.171875 247.820312 C 353.484375 233.539062 358.40625 218.632812 368.132812 208.410156 C 377.976562 198.070312 392.273438 195.066406 404.5 198.382812 C 416.882812 201.816406 427.117188 211.765625 428.328125 227.179688 Z M 232.863281 172.082031 C 220.675781 168.726562 206.378906 171.730469 196.496094 182.109375 C 186.769531 192.335938 181.847656 207.238281 181.535156 221.519531 C 181.457031 225.96875 181.769531 230.457031 183.175781 234.476562 C 184.269531 237.636719 185.988281 240.445312 187.980469 242.980469 C 198.488281 256.289062 218.253906 260.699219 232.785156 250.589844 C 236.417969 248.054688 239.621094 244.777344 242.511719 241.265625 C 251.652344 230.027344 257.824219 215.238281 256.691406 200.878906 C 255.519531 185.425781 245.246094 175.476562 232.863281 172.082031 Z M 232.863281 172.082031 " fill-opacity="1" fill-rule="nonzero"/><path fill="#000000" d="M 296.925781 199.746094 C 305.089844 199.589844 317.550781 201.582031 317.355469 212.15625 C 317.082031 226.359375 294.386719 229.792969 286.222656 230.574219 C 284.230469 230.769531 282.238281 230.378906 280.441406 229.441406 C 277.082031 227.648438 271.652344 224.019531 269.230469 218.359375 C 267.316406 213.796875 268.058594 210.324219 270.324219 207.667969 C 275.753906 201.386719 289.855469 199.863281 296.925781 199.746094 Z M 394.34375 213.445312 C 393.835938 207.121094 391.609375 201.816406 388.289062 197.679688 C 380.90625 198.96875 373.757812 202.480469 368.09375 208.449219 C 358.367188 218.671875 353.445312 233.578125 353.132812 247.859375 C 353.054688 252.308594 353.367188 256.796875 354.773438 260.816406 C 354.96875 261.359375 355.203125 261.90625 355.4375 262.453125 C 361.53125 262.84375 367.703125 261.359375 373.132812 257.613281 C 376.375 255.390625 379.226562 252.464844 381.765625 249.34375 C 389.890625 239.351562 395.359375 226.203125 394.34375 213.445312 Z M 222.746094 187.105469 C 222.238281 180.785156 220.011719 175.476562 216.691406 171.339844 C 209.308594 172.628906 202.160156 176.140625 196.496094 182.109375 C 186.769531 192.335938 181.847656 207.238281 181.535156 221.519531 C 181.457031 225.96875 181.769531 230.457031 183.175781 234.476562 C 183.371094 235.023438 183.605469 235.570312 183.839844 236.113281 C 189.933594 236.503906 196.105469 235.023438 201.535156 231.277344 C 204.777344 229.050781 207.628906 226.125 210.167969 223.003906 C 218.253906 213.015625 223.722656 199.863281 222.746094 187.105469 Z M 222.746094 187.105469 " fill-opacity="1" fill-rule="nonzero"/><path fill="#68441f" d="M 237.550781 398.320312 C 237.824219 397.816406 238.449219 397.582031 238.957031 397.855469 C 239.230469 397.96875 265.988281 410.964844 289.777344 416.738281 C 290.324219 416.894531 290.675781 417.441406 290.558594 418.027344 C 290.441406 418.496094 290.011719 418.847656 289.542969 418.847656 C 289.464844 418.847656 289.386719 418.847656 289.308594 418.808594 C 265.246094 412.953125 238.332031 399.921875 238.058594 399.765625 C 237.511719 399.492188 237.316406 398.828125 237.550781 398.320312 Z M 257.589844 419.625 C 257.160156 419.238281 256.496094 419.199219 256.105469 419.625 C 255.675781 420.054688 255.675781 420.71875 256.105469 421.109375 C 256.496094 421.5 265.636719 430.511719 281.378906 435.742188 C 281.496094 435.78125 281.613281 435.78125 281.730469 435.78125 C 282.160156 435.78125 282.589844 435.507812 282.746094 435.078125 C 282.941406 434.53125 282.628906 433.945312 282.082031 433.753906 C 266.769531 428.640625 257.667969 419.703125 257.589844 419.625 Z M 288.644531 161.78125 C 288.917969 161.664062 316.886719 150.816406 344.421875 154.015625 C 372.195312 157.253906 406.804688 164.394531 407.15625 164.472656 C 407.234375 164.472656 407.3125 164.511719 407.390625 164.511719 C 407.898438 164.511719 408.328125 164.160156 408.40625 163.652344 C 408.523438 163.070312 408.171875 162.523438 407.585938 162.40625 C 407.390625 162.367188 396.6875 160.140625 382.46875 157.644531 C 384.734375 154.796875 388.835938 147.5 384.109375 134.933594 C 383.914062 134.390625 383.289062 134.117188 382.742188 134.3125 C 382.195312 134.507812 381.921875 135.128906 382.117188 135.675781 C 387.234375 149.292969 381.179688 156.046875 380.007812 157.214844 C 368.992188 155.304688 356.21875 153.273438 344.617188 151.910156 C 316.574219 148.671875 288.097656 159.714844 287.824219 159.832031 C 287.277344 160.023438 287.003906 160.648438 287.238281 161.195312 C 287.472656 161.742188 288.097656 162.015625 288.644531 161.78125 Z M 503.835938 260.347656 C 503.875 260.738281 504.1875 261.085938 504.578125 261.203125 C 504.695312 261.242188 504.773438 261.242188 504.890625 261.242188 C 505.203125 261.242188 505.476562 261.125 505.671875 260.890625 C 505.945312 260.582031 534.070312 228.738281 528.835938 195.964844 C 528.757812 195.378906 528.210938 194.988281 527.625 195.105469 C 527.039062 195.183594 526.648438 195.730469 526.765625 196.3125 C 531.179688 223.824219 511.257812 250.746094 505.59375 257.769531 C 499.34375 222.417969 467.898438 198.8125 467.585938 198.578125 C 467.117188 198.226562 466.453125 198.34375 466.101562 198.8125 C 465.75 199.28125 465.867188 199.941406 466.335938 200.292969 C 466.609375 200.488281 498.71875 224.566406 503.835938 260.347656 Z M 503.875 358.558594 C 503.328125 358.363281 502.742188 358.675781 502.546875 359.222656 C 502.46875 359.457031 495.28125 381.386719 483.796875 394.148438 C 483.40625 394.574219 483.445312 395.238281 483.875 395.628906 C 484.070312 395.824219 484.34375 395.902344 484.578125 395.902344 C 484.851562 395.902344 485.164062 395.785156 485.359375 395.550781 C 497.15625 382.480469 504.265625 360.785156 504.539062 359.886719 C 504.734375 359.339844 504.460938 358.753906 503.875 358.558594 Z M 498.328125 415.53125 C 498.5625 415.53125 498.796875 415.453125 498.953125 415.296875 C 507.625 408.625 510.945312 397.582031 511.101562 397.113281 C 511.257812 396.566406 510.945312 395.980469 510.398438 395.785156 C 509.851562 395.628906 509.265625 395.941406 509.070312 396.488281 C 509.03125 396.605469 505.789062 407.375 497.664062 413.617188 C 497.195312 413.96875 497.117188 414.632812 497.46875 415.101562 C 497.703125 415.375 498.015625 415.53125 498.328125 415.53125 Z M 513.132812 284.226562 C 513.054688 283.640625 512.507812 283.25 511.960938 283.328125 C 511.375 283.40625 510.984375 283.953125 511.0625 284.5 C 512.9375 298.3125 508.601562 306.664062 508.5625 306.742188 C 508.289062 307.25 508.484375 307.910156 508.992188 308.183594 C 509.148438 308.261719 509.304688 308.300781 509.5 308.300781 C 509.890625 308.300781 510.242188 308.105469 510.4375 307.753906 C 510.59375 307.40625 515.085938 298.78125 513.132812 284.226562 Z M 386.257812 693.355469 C 300.050781 645.789062 287.433594 535.75 287.316406 534.660156 C 287.238281 534.074219 286.730469 533.683594 286.144531 533.722656 C 285.558594 533.800781 285.128906 534.308594 285.207031 534.894531 C 285.324219 536.023438 298.058594 647.113281 385.203125 695.226562 C 385.359375 695.304688 385.554688 695.34375 385.710938 695.34375 C 386.101562 695.34375 386.453125 695.148438 386.648438 694.796875 C 386.960938 694.289062 386.765625 693.625 386.257812 693.355469 Z M 428.445312 676.378906 C 421.101562 680.59375 422 695.070312 422.039062 695.65625 C 422.078125 696.203125 422.546875 696.632812 423.09375 696.632812 C 423.132812 696.632812 423.132812 696.632812 423.171875 696.632812 C 423.757812 696.59375 424.1875 696.085938 424.148438 695.5 C 424.148438 695.34375 423.289062 681.726562 429.5 678.175781 C 430.007812 677.902344 430.164062 677.238281 429.890625 676.730469 C 429.578125 676.261719 428.953125 676.066406 428.445312 676.378906 Z M 299.816406 676.378906 C 292.472656 680.59375 293.371094 695.070312 293.410156 695.65625 C 293.449219 696.203125 293.917969 696.632812 294.464844 696.632812 C 294.503906 696.632812 294.503906 696.632812 294.542969 696.632812 C 295.128906 696.59375 295.558594 696.085938 295.519531 695.5 C 295.519531 695.34375 294.660156 681.726562 300.871094 678.175781 C 301.378906 677.902344 301.535156 677.238281 301.261719 676.730469 C 300.988281 676.261719 300.324219 676.066406 299.816406 676.378906 Z M 318.996094 676.847656 C 311.652344 681.0625 312.550781 695.539062 312.589844 696.125 C 312.628906 696.671875 313.097656 697.101562 313.644531 697.101562 C 313.683594 697.101562 313.683594 697.101562 313.722656 697.101562 C 314.308594 697.0625 314.738281 696.554688 314.699219 695.96875 C 314.699219 695.8125 313.839844 682.195312 320.050781 678.644531 C 320.558594 678.371094 320.714844 677.707031 320.441406 677.199219 C 320.128906 676.730469 319.503906 676.574219 318.996094 676.847656 Z M 339.578125 676.378906 C 332.238281 680.59375 333.136719 695.070312 333.175781 695.65625 C 333.214844 696.203125 333.683594 696.632812 334.230469 696.632812 C 334.269531 696.632812 334.269531 696.632812 334.308594 696.632812 C 334.894531 696.59375 335.324219 696.085938 335.285156 695.5 C 335.285156 695.34375 334.425781 681.726562 340.632812 678.175781 C 341.140625 677.902344 341.296875 677.238281 341.023438 676.730469 C 340.75 676.261719 340.085938 676.066406 339.578125 676.378906 Z M 451.023438 675.40625 C 443.679688 679.617188 444.578125 694.09375 444.617188 694.679688 C 444.65625 695.226562 445.125 695.65625 445.671875 695.65625 C 445.710938 695.65625 445.710938 695.65625 445.75 695.65625 C 446.335938 695.617188 446.765625 695.109375 446.726562 694.523438 C 446.726562 694.367188 445.867188 680.75 452.078125 677.199219 C 452.585938 676.925781 452.742188 676.261719 452.46875 675.753906 C 452.15625 675.289062 451.53125 675.09375 451.023438 675.40625 Z M 409.773438 676.378906 C 403.484375 679.96875 403.210938 691.011719 403.328125 694.5625 C 396.492188 692.535156 392.078125 689.414062 390.90625 685.746094 C 390.164062 683.363281 390.828125 680.789062 392.820312 678.253906 C 398.523438 671.152344 400.203125 635.410156 388.679688 610.785156 C 377.46875 586.789062 379.929688 538.558594 379.929688 538.054688 C 379.96875 537.46875 379.5 536.960938 378.914062 536.960938 C 378.367188 536.960938 377.820312 537.390625 377.820312 537.976562 C 377.703125 539.964844 375.320312 587.21875 386.765625 611.683594 C 398.367188 636.539062 395.789062 671.152344 391.140625 676.925781 C 388.679688 680.007812 387.898438 683.246094 388.875 686.367188 C 389.851562 689.453125 393.054688 693.742188 402.78125 696.59375 C 402.898438 696.632812 402.976562 696.632812 403.09375 696.632812 C 403.328125 696.632812 403.5625 696.554688 403.757812 696.398438 C 403.953125 696.554688 404.148438 696.632812 404.421875 696.632812 C 404.460938 696.632812 404.460938 696.632812 404.5 696.632812 C 405.085938 696.59375 405.515625 696.085938 405.476562 695.5 C 405.476562 695.34375 404.617188 681.726562 410.828125 678.175781 C 411.335938 677.902344 411.492188 677.238281 411.21875 676.730469 C 410.945312 676.261719 410.28125 676.066406 409.773438 676.378906 Z M 559.421875 601.695312 C 540.671875 603.296875 533.40625 616.445312 531.179688 621.945312 C 525.828125 610.746094 516.414062 596.621094 501.570312 591.941406 C 494.03125 589.558594 486.296875 588.664062 478.992188 589.128906 C 478.40625 586.242188 473.953125 563.417969 475.164062 542.304688 C 475.203125 541.722656 474.734375 541.214844 474.1875 541.175781 C 473.640625 541.136719 473.09375 541.605469 473.054688 542.148438 C 471.84375 563.027344 476.140625 585.5 476.882812 589.246094 C 469.96875 589.988281 463.484375 591.980469 457.9375 595.21875 C 448.054688 601.03125 441.53125 610.554688 439.03125 622.726562 C 436.375 635.644531 441.882812 651.640625 455.359375 670.253906 C 465.320312 684.027344 476.21875 694.210938 476.296875 694.328125 C 476.492188 694.523438 476.765625 694.601562 477 694.601562 C 477.273438 694.601562 477.546875 694.484375 477.78125 694.25 C 478.171875 693.820312 478.171875 693.160156 477.742188 692.769531 C 477.3125 692.378906 435.046875 652.617188 441.0625 623.15625 C 443.445312 611.566406 449.617188 602.554688 458.992188 597.050781 C 470.359375 590.378906 486.023438 589.207031 500.90625 593.890625 C 525.007812 601.5 539.773438 639.078125 540.085938 671.035156 C 540.085938 671.621094 540.554688 672.085938 541.140625 672.085938 C 541.726562 672.085938 542.195312 671.621094 542.195312 671.035156 C 542.039062 655.308594 538.445312 638.609375 532.390625 624.757812 C 532.859375 623.15625 538.25 605.597656 559.578125 603.761719 C 560.164062 603.722656 560.59375 603.21875 560.554688 602.632812 C 560.515625 602.085938 560.007812 601.617188 559.421875 601.695312 Z M 263.488281 597.441406 C 263.097656 597.011719 262.433594 597.011719 262.003906 597.402344 C 261.574219 597.792969 261.574219 598.457031 261.964844 598.886719 C 262.121094 599.042969 277.511719 615.703125 282.316406 645.398438 C 287.042969 674.742188 279.699219 683.675781 279.621094 683.753906 C 279.230469 684.183594 279.269531 684.847656 279.699219 685.238281 C 279.894531 685.433594 280.167969 685.511719 280.402344 685.511719 C 280.675781 685.511719 280.988281 685.394531 281.183594 685.160156 C 281.535156 684.769531 289.308594 675.597656 284.386719 645.085938 C 279.464844 614.726562 263.644531 597.636719 263.488281 597.441406 Z M 506.375 644.34375 C 502.390625 642.042969 498.640625 640.519531 495.085938 639.503906 C 490.476562 615.742188 501.414062 611.996094 501.570312 611.957031 C 502.117188 611.800781 502.429688 611.214844 502.273438 610.628906 C 502.117188 610.085938 501.53125 609.773438 500.945312 609.929688 C 500.4375 610.085938 488.328125 613.988281 492.820312 638.921875 C 488.601562 637.945312 484.734375 637.789062 481.257812 638.140625 C 481.375 637.789062 481.335938 637.398438 481.101562 637.085938 C 467.664062 621.207031 474.695312 607.117188 475.007812 606.535156 C 475.28125 606.027344 475.085938 605.363281 474.539062 605.128906 C 474.03125 604.855469 473.367188 605.050781 473.132812 605.558594 C 473.054688 605.714844 471.0625 609.617188 470.828125 615.625 C 470.632812 621.128906 471.960938 629.554688 479.421875 638.375 C 475.203125 639.039062 471.570312 640.441406 468.679688 642.003906 C 468.601562 641.925781 468.523438 641.808594 468.40625 641.769531 C 453.71875 632.714844 453.523438 617.304688 453.523438 617.1875 C 453.523438 616.601562 453.054688 616.132812 452.46875 616.132812 C 451.882812 616.132812 451.414062 616.601562 451.414062 617.1875 C 451.414062 617.847656 451.609375 633.457031 466.6875 643.171875 C 462.273438 645.945312 459.890625 648.792969 459.8125 648.871094 C 459.460938 649.339844 459.5 650.003906 459.96875 650.351562 C 460.164062 650.507812 460.398438 650.585938 460.632812 650.585938 C 460.945312 650.585938 461.257812 650.46875 461.453125 650.199219 C 462.117188 649.378906 477.9375 630.492188 505.28125 646.21875 C 505.789062 646.492188 506.414062 646.335938 506.726562 645.828125 C 507.078125 645.28125 506.882812 644.617188 506.375 644.34375 Z M 262.824219 644.265625 C 262.707031 644.226562 256.652344 641.691406 249.777344 642.472656 C 254.660156 623.234375 250.792969 612.894531 250.597656 612.464844 C 250.402344 611.917969 249.777344 611.683594 249.230469 611.878906 C 248.683594 612.074219 248.410156 612.699219 248.644531 613.246094 C 248.683594 613.363281 252.550781 623.742188 247.511719 642.863281 C 243.644531 643.757812 239.738281 645.828125 236.691406 650.160156 C 236.339844 650.625 236.457031 651.289062 236.925781 651.640625 C 237.121094 651.757812 237.316406 651.835938 237.550781 651.835938 C 237.863281 651.835938 238.214844 651.679688 238.410156 651.40625 C 241.144531 647.582031 244.542969 645.710938 247.941406 644.890625 C 247.980469 644.890625 248.019531 644.929688 248.058594 644.96875 C 248.136719 645.007812 248.253906 645.007812 248.332031 645.007812 C 248.605469 645.007812 248.878906 644.890625 249.074219 644.65625 C 255.558594 643.5625 261.574219 646.0625 261.964844 646.21875 C 262.511719 646.453125 263.136719 646.21875 263.332031 645.671875 C 263.605469 645.125 263.371094 644.5 262.824219 644.265625 Z M 266.652344 308.964844 C 266.691406 308.964844 266.769531 308.964844 266.847656 308.964844 C 267.433594 308.886719 267.824219 308.339844 267.707031 307.753906 C 267.628906 307.25 259.542969 257.730469 280.480469 238.105469 C 280.910156 237.714844 280.910156 237.050781 280.519531 236.621094 C 280.128906 236.191406 279.464844 236.191406 279.035156 236.582031 C 267.628906 247.3125 264.582031 266.238281 264.074219 280.207031 C 263.488281 295.269531 265.636719 307.988281 265.636719 308.105469 C 265.714844 308.613281 266.144531 308.964844 266.652344 308.964844 Z M 266.652344 308.964844 " fill-opacity="1" fill-rule="nonzero"/></svg>